<svg xmlns="http://www.w3.org/2000/svg" viewBox="0 0 48 48" width="48" height="48" fill="none" stroke-linecap="round" stroke-linejoin="round"><!-- AMTP Babylon Glyph: four-node reasoning network - AI-powered insight. Original geometry, 48 grid. --><defs><linearGradient id="ain-V" gradientUnits="userSpaceOnUse" x1="6" y1="6" x2="42" y2="42"><stop offset="0" stop-color="#E0A5FF"/><stop offset="1" stop-color="#B278D7"/></linearGradient><linearGradient id="ain-G" gradientUnits="userSpaceOnUse" x1="6" y1="6" x2="42" y2="42"><stop offset="0" stop-color="#83DD7A"/><stop offset="1" stop-color="#55AE4C"/></linearGradient></defs><g stroke="#B278D7" stroke-opacity=".6" stroke-width="2" stroke-dasharray="0.01 3.6"><path d="M31.01 12.62A16 16 0 0 1 39.96 28.12"/><path d="M32.95 40.26A16 16 0 0 1 15.05 40.26"/><path d="M8.04 28.12A16 16 0 0 1 16.99 12.62"/></g><g stroke="url(#ain-V)" stroke-width="3"><path d="M24 19L24 17.5"/><path d="M30.93 31L32.23 31.75"/><path d="M17.07 31L15.77 31.75"/></g><circle cx="24" cy="11" r="4.75" fill="#E0A5FF" fill-opacity=".18" stroke="url(#ain-V)" stroke-width="3"/><circle cx="37.86" cy="35" r="4.75" fill="#E0A5FF" fill-opacity=".18" stroke="url(#ain-V)" stroke-width="3"/><circle cx="10.14" cy="35" r="4.75" fill="#E0A5FF" fill-opacity=".18" stroke="url(#ain-V)" stroke-width="3"/><circle cx="24" cy="27" r="6" fill="url(#ain-G)"/><circle cx="22.3" cy="25.3" r="1.4" fill="#FFFFFF" fill-opacity=".85"/></svg>
