<svg xmlns="http://www.w3.org/2000/svg" viewBox="0 0 48 48" width="48" height="48" fill="none" stroke-linecap="round" stroke-linejoin="round"><!-- AMTP Babylon Glyph: record dissolving into pixels - delete means delete. Original geometry, 48 grid. --><defs><linearGradient id="del-T" gradientUnits="userSpaceOnUse" x1="6" y1="6" x2="42" y2="42"><stop offset="0" stop-color="#4ADECA"/><stop offset="1" stop-color="#2DAC9A"/></linearGradient><linearGradient id="del-G" gradientUnits="userSpaceOnUse" x1="6" y1="6" x2="42" y2="42"><stop offset="0" stop-color="#83DD7A"/><stop offset="1" stop-color="#55AE4C"/></linearGradient></defs><path d="M13 7.5A4 4 0 0 0 9 11.5V36.5A4 4 0 0 0 13 40.5H19V7.5Z" fill="#4ADECA" fill-opacity=".12"/><path d="M19 7.5H13A4 4 0 0 0 9 11.5V36.5A4 4 0 0 0 13 40.5H19" stroke="url(#del-T)" stroke-width="3"/><g stroke="#2DAC9A" stroke-width="2"><path d="M13.5 16H17"/><path d="M13.5 22H17"/><path d="M13.5 28H17"/></g><rect x="22" y="8" width="4.5" height="4.5" rx="1" fill="url(#del-G)" fill-opacity="0.95"/><rect x="22" y="17" width="4.5" height="4.5" rx="1" fill="url(#del-G)" fill-opacity="0.95"/><rect x="22" y="26" width="4.5" height="4.5" rx="1" fill="url(#del-G)" fill-opacity="0.95"/><rect x="22" y="35" width="4.5" height="4.5" rx="1" fill="url(#del-G)" fill-opacity="0.95"/><rect x="28" y="12" width="4.5" height="4.5" rx="1" fill="url(#del-G)" fill-opacity="0.7"/><rect x="28" y="22" width="4.5" height="4.5" rx="1" fill="url(#del-G)" fill-opacity="0.7"/><rect x="28" y="31" width="4.5" height="4.5" rx="1" fill="url(#del-G)" fill-opacity="0.7"/><rect x="34" y="16" width="4.5" height="4.5" rx="1" fill="url(#del-G)" fill-opacity="0.45"/><rect x="34" y="27" width="4.5" height="4.5" rx="1" fill="url(#del-G)" fill-opacity="0.45"/><rect x="40" y="21" width="4.5" height="4.5" rx="1" fill="url(#del-G)" fill-opacity="0.25"/><path d="M9 18V11.5A4 4 0 0 1 13 7.5H16" stroke="#FFFFFF" stroke-opacity=".6" stroke-width="1.25"/></svg>
